# xmcd CD database file
# Copyright (C) 1997 Ti Kan
#
# Track frame offsets:
#  150
#  19725
#  37663
#  55713
#  70913
#  85938
#  102875
#  118863
#  135038
#  151350
#  169588
#  185813
#  203313
#  221838
#  237250
#  252425
#  269200
#  285338
#  304088
#  317938
#  336138
#
# Disc length: 4660 seconds
#
# Revision: 1
# Processed by: cddbd v1.4b41PL1 Copyright (c) Steve Scherf et al.
# Submitted via: CDWizzard Release:4.32
#
DISCID=27123215
DTITLE=BOBBY B. - MODERN DAY COWBOY
DYEAR=1900
DGENRE=
TTITLE0=RUN LIKE A RIVER
TTITLE1=TEXAS TEARDROP
TTITLE2=DANCE THAT LINE
TTITLE3=RIVER OF TEARS
TTITLE4=LOVE IS A PRECIOUS THING
TTITLE5=EVERY ROAD LEADS TO YOU
TTITLE6=ANGEL IN THE CORNER OF MY MIND
TTITLE7=IT DON'T MATTER ANYWAY
TTITLE8=THE WORKIN' MAN'S BLUES
TTITLE9=ECHOES OF TIME
TTITLE10=MODERN DAY COWBOY
TTITLE11=LAND OF THE FREE
TTITLE12=THE HURTIN' SIDE OF ME
TTITLE13=BE TRUE TO YOURSELF
TTITLE14=TRUE LOVIN' BLUES
TTITLE15=TENNESSEE HEART
TTITLE16=UNCONDITIONAL LOVE
TTITLE17=EVERY DAY FOR THE REST OF MY LIFE
TTITLE18=FEELIN' BLUE
TTITLE19=I LOVE YOUR LOVIN' WAYS
TTITLE20=FRIENDS
EXTD=
EXTT0=
EXTT1=
EXTT2=
EXTT3=
EXTT4=
EXTT5=
EXTT6=
EXTT7=
EXTT8=
EXTT9=
EXTT10=
EXTT11=
EXTT12=
EXTT13=
EXTT14=
EXTT15=
EXTT16=
EXTT17=
EXTT18=
EXTT19=
EXTT20=
PLAYORDER=
